<?xml version="1.0" ?><svg id="Layer_1" style="enable-background:new 0 0 52 52;" version="1.1" viewBox="0 0 52 52" xml:space="preserve" xmlns="http://www.w3.org/2000/svg" xmlns:xlink="http://www.w3.org/1999/xlink"><style type="text/css">
	.st0{fill:#fff;}
</style><g><path d="M39.7954102,5.6998596h-3.6627808l1.8991089,2.7470703c0.4589844,0.5385742,0.71875,1.2348633,0.71875,1.9438477   c0,1.6542969-1.3457031,3-3,3H16.2709961c-1.1035156,0-2.1181641-0.6025391-2.6464844-1.5722656   c-0.5380859-1.0444336-0.4550781-2.2368164,0.1943359-3.1538086l2.0496216-2.9648438h-3.6638794   c-1.9951172,0-3.6191406,1.6191406-3.6191406,3.609375v37.262207c0,1.8896484,1.5371094,3.4277344,3.4267578,3.4277344H39.987793   c1.8896484,0,3.4267578-1.5380859,3.4267578-3.4277344V9.3092346C43.4145508,7.3190002,41.7905273,5.6998596,39.7954102,5.6998596z    M17.4805298,14.9408264c1.9699707,0,3.5800171,1.5999756,3.5800171,3.5799561   c0,1.9700317-1.6100464,3.5800171-3.5800171,3.5800171c-1.9700317,0-3.5800171-1.6099854-3.5800171-3.5800171   C13.9005127,16.540802,15.510498,14.9408264,17.4805298,14.9408264z M17.4805298,26.6208191   c1.9699707,0,3.5800171,1.6099854,3.5800171,3.5799561c0,1.9700317-1.6100464,3.5800171-3.5800171,3.5800171   c-1.9700317,0-3.5800171-1.6099854-3.5800171-3.5800171C13.9005127,28.2308044,15.510498,26.6208191,17.4805298,26.6208191z    M22.0170898,40.3976135l-4.9355469,4.9345703c-0.1953125,0.1953125-0.4511719,0.2929688-0.7070313,0.2929688   s-0.5117188-0.0976563-0.7070313-0.2929688l-2.65625-2.65625c-0.390625-0.390625-0.390625-1.0234375,0-1.4140625   s1.0234375-0.390625,1.4140625,0l1.9492188,1.9492188l4.2285023-4.2275391c0.3906384-0.390625,1.0234509-0.390625,1.4140759,0   S22.4077148,40.0069885,22.0170898,40.3976135z M38.2817383,43.1583557H24.1079102c-0.5527344,0-1-0.4472656-1-1s0.4472656-1,1-1   h14.1738281c0.5527344,0,1,0.4472656,1,1S38.8344727,43.1583557,38.2817383,43.1583557z M38.2817383,31.202301H24.1088867   c-0.5527344,0-1-0.4472656-1-1c0-0.5522461,0.4472656-1,1-1h14.1728516c0.5527344,0,1,0.4477539,1,1   C39.2817383,30.7550354,38.8344727,31.202301,38.2817383,31.202301z M38.2817383,19.5172424H24.1088867   c-0.5527344,0-1-0.4477539-1-1s0.4472656-1,1-1h14.1728516c0.5527344,0,1,0.4477539,1,1   S38.8344727,19.5172424,38.2817383,19.5172424z"/><path class="st0" d="M36.4605103,9.6908264l-5.0199585-7.2600098c-0.1900024-0.2700195-0.5-0.4299927-0.8300171-0.4299927   h-9.2299805c-0.3200073,0-0.6300049,0.1599731-0.8200073,0.4299927l-5.1100464,7.3900146   c-0.2199707,0.3099976-0.2399902,0.7099609-0.0699463,1.039978c0.1799927,0.3300171,0.5199585,0.5299683,0.8899536,0.5299683   h19.460022c0.0100098,0,0.0200195,0,0.0200195,0c0.5499878,0,1-0.4400024,1-1   C36.7505493,10.1208191,36.6405029,9.8708191,36.4605103,9.6908264z M26.7005005,7.4007874   c-0.1799927,0.1900024-0.4299927,0.2999878-0.6999512,0.2999878c-0.2700195,0-0.5200195-0.1099854-0.710022-0.2999878   c-0.1900024-0.1799927-0.289978-0.4400024-0.289978-0.7000122c0-0.2699585,0.0999756-0.5299683,0.289978-0.7099609   c0.3699951-0.3699951,1.0499878-0.3699951,1.4199829,0c0.1799927,0.1799927,0.2900391,0.4400024,0.2900391,0.7099609   C27.0005493,6.9607849,26.8905029,7.2207947,26.7005005,7.4007874z"/></g></svg>